<mxfile host="65bd71144e">
    <diagram id="yfga_TLR9oVwcaI-TNAI" name="第 1 页">
        <mxGraphModel dx="1031" dy="934" grid="1" gridSize="10" guides="1" tooltips="1" connect="1" arrows="1" fold="1" page="1" pageScale="1" pageWidth="827" pageHeight="1169" math="0" shadow="0">
            <root>
                <mxCell id="0"/>
                <mxCell id="1" parent="0"/>
                <mxCell id="89" style="edgeStyle=orthogonalEdgeStyle;rounded=0;orthogonalLoop=1;jettySize=auto;html=1;strokeColor=#00FF00;" edge="1" parent="1" source="76">
                    <mxGeometry relative="1" as="geometry">
                        <mxPoint x="275" y="530" as="targetPoint"/>
                    </mxGeometry>
                </mxCell>
                <mxCell id="76" value="" style="rounded=1;whiteSpace=wrap;html=1;strokeColor=#66FFB3;" parent="1" vertex="1">
                    <mxGeometry x="60" y="680" width="430" height="250" as="geometry"/>
                </mxCell>
                <mxCell id="80" style="edgeStyle=orthogonalEdgeStyle;rounded=0;orthogonalLoop=1;jettySize=auto;html=1;entryX=0.5;entryY=0;entryDx=0;entryDy=0;strokeColor=#00FF00;" parent="1" source="26" target="76" edge="1">
                    <mxGeometry relative="1" as="geometry"/>
                </mxCell>
                <mxCell id="88" style="edgeStyle=orthogonalEdgeStyle;rounded=0;orthogonalLoop=1;jettySize=auto;html=1;entryX=0.5;entryY=1;entryDx=0;entryDy=0;strokeColor=#00FF00;" edge="1" parent="1" source="26" target="51">
                    <mxGeometry relative="1" as="geometry"/>
                </mxCell>
                <object label="" id="26">
                    <mxCell style="ellipse;whiteSpace=wrap;html=1;aspect=fixed;strokeColor=#FF3333;" parent="1" vertex="1">
                        <mxGeometry x="80" y="140" width="390" height="390" as="geometry"/>
                    </mxCell>
                </object>
                <mxCell id="28" value="&lt;h1&gt;view&amp;nbsp;&lt;/h1&gt;" style="text;html=1;resizable=0;autosize=1;align=center;verticalAlign=middle;points=[];fillColor=none;strokeColor=none;rounded=0;" parent="1" vertex="1">
                    <mxGeometry x="240" y="695" width="70" height="50" as="geometry"/>
                </mxCell>
                <mxCell id="29" value="" style="rounded=1;whiteSpace=wrap;html=1;" parent="1" vertex="1">
                    <mxGeometry x="115" y="270" width="320" height="180" as="geometry"/>
                </mxCell>
                <mxCell id="33" value="" style="rounded=1;whiteSpace=wrap;html=1;" parent="1" vertex="1">
                    <mxGeometry x="136" y="320" width="140" height="120" as="geometry"/>
                </mxCell>
                <mxCell id="34" value="" style="rounded=1;whiteSpace=wrap;html=1;" parent="1" vertex="1">
                    <mxGeometry x="276" y="320" width="140" height="120" as="geometry"/>
                </mxCell>
                <mxCell id="35" value="helpers |&amp;nbsp;enums |&amp;nbsp;apis" style="rounded=1;whiteSpace=wrap;html=1;" parent="1" vertex="1">
                    <mxGeometry x="157" y="200" width="236" height="60" as="geometry"/>
                </mxCell>
                <mxCell id="38" value="basesController" style="text;html=1;resizable=0;autosize=1;align=center;verticalAlign=middle;points=[];fillColor=none;strokeColor=none;rounded=0;" parent="1" vertex="1">
                    <mxGeometry x="225" y="280" width="100" height="20" as="geometry"/>
                </mxCell>
                <mxCell id="39" value="basesDetails" style="text;html=1;resizable=0;autosize=1;align=center;verticalAlign=middle;points=[];fillColor=none;strokeColor=none;rounded=0;" parent="1" vertex="1">
                    <mxGeometry x="166" y="330" width="80" height="20" as="geometry"/>
                </mxCell>
                <mxCell id="40" value="basesPagination" style="text;html=1;resizable=0;autosize=1;align=center;verticalAlign=middle;points=[];fillColor=none;strokeColor=none;rounded=0;" parent="1" vertex="1">
                    <mxGeometry x="296" y="330" width="100" height="20" as="geometry"/>
                </mxCell>
                <mxCell id="41" value="baseModel" style="shape=cylinder3;whiteSpace=wrap;html=1;boundedLbl=1;backgroundOutline=1;size=15;" parent="1" vertex="1">
                    <mxGeometry x="153" y="370" width="106" height="60" as="geometry"/>
                </mxCell>
                <mxCell id="42" value="baseModel" style="shape=cylinder3;whiteSpace=wrap;html=1;boundedLbl=1;backgroundOutline=1;size=15;" parent="1" vertex="1">
                    <mxGeometry x="296" y="370" width="106" height="60" as="geometry"/>
                </mxCell>
                <mxCell id="43" value="Mobile (Vue)" style="whiteSpace=wrap;html=1;" parent="1" vertex="1">
                    <mxGeometry x="80" y="750" width="120" height="60" as="geometry"/>
                </mxCell>
                <mxCell id="46" value="Reactjs" style="whiteSpace=wrap;html=1;" parent="1" vertex="1">
                    <mxGeometry x="216" y="750" width="120" height="60" as="geometry"/>
                </mxCell>
                <mxCell id="48" value="Weapp (React)" style="whiteSpace=wrap;html=1;" parent="1" vertex="1">
                    <mxGeometry x="350" y="750" width="120" height="60" as="geometry"/>
                </mxCell>
                <mxCell id="50" value="new BasesController&lt;br&gt;&amp;amp;&lt;br&gt;&amp;nbsp;extends BasesController" style="rounded=1;whiteSpace=wrap;html=1;strokeColor=#007FFF;" parent="1" vertex="1">
                    <mxGeometry x="175" y="570" width="200" height="60" as="geometry"/>
                </mxCell>
                <mxCell id="52" style="edgeStyle=orthogonalEdgeStyle;rounded=0;orthogonalLoop=1;jettySize=auto;html=1;entryX=0.5;entryY=0;entryDx=0;entryDy=0;strokeColor=#00FF00;" parent="1" source="51" target="26" edge="1">
                    <mxGeometry relative="1" as="geometry"/>
                </mxCell>
                <mxCell id="51" value="Server&amp;nbsp;" style="shape=datastore;whiteSpace=wrap;html=1;strokeColor=#7F00FF;" parent="1" vertex="1">
                    <mxGeometry x="122" width="306" height="90" as="geometry"/>
                </mxCell>
                <mxCell id="81" value="&lt;h1&gt;clients&lt;/h1&gt;" style="text;html=1;resizable=0;autosize=1;align=center;verticalAlign=middle;points=[];fillColor=none;strokeColor=none;rounded=0;" parent="1" vertex="1">
                    <mxGeometry x="231" y="150" width="90" height="50" as="geometry"/>
                </mxCell>
                <mxCell id="90" value="&lt;h2&gt;通过继承或者直接实例化使用&lt;br&gt;视图 通过 调用对应&lt;br&gt;方法操作&amp;amp;获取数据&lt;/h2&gt;" style="whiteSpace=wrap;html=1;rounded=1;arcSize=50;align=center;verticalAlign=middle;strokeWidth=1;autosize=1;spacing=4;treeFolding=1;treeMoving=1;newEdgeStyle={&quot;edgeStyle&quot;:&quot;entityRelationEdgeStyle&quot;,&quot;startArrow&quot;:&quot;none&quot;,&quot;endArrow&quot;:&quot;none&quot;,&quot;segment&quot;:10,&quot;curved&quot;:1};" vertex="1" parent="1">
                    <mxGeometry x="528" y="511" width="270" height="80" as="geometry"/>
                </mxCell>
                <mxCell id="91" value="" style="edgeStyle=entityRelationEdgeStyle;startArrow=none;endArrow=none;segment=10;curved=1;strokeColor=#00FF00;" edge="1" target="90" parent="1">
                    <mxGeometry relative="1" as="geometry">
                        <mxPoint x="375" y="600" as="sourcePoint"/>
                    </mxGeometry>
                </mxCell>
                <mxCell id="92" value="&lt;h2&gt;同业务代码抽离&lt;br&gt;不同端 import 使用&lt;/h2&gt;" style="whiteSpace=wrap;html=1;rounded=1;arcSize=50;align=center;verticalAlign=middle;strokeWidth=1;autosize=1;spacing=4;treeFolding=1;treeMoving=1;newEdgeStyle={&quot;edgeStyle&quot;:&quot;entityRelationEdgeStyle&quot;,&quot;startArrow&quot;:&quot;none&quot;,&quot;endArrow&quot;:&quot;none&quot;,&quot;segment&quot;:10,&quot;curved&quot;:1};" vertex="1" parent="1">
                    <mxGeometry x="542.5" y="250" width="200" height="70" as="geometry"/>
                </mxCell>
                <mxCell id="93" value="" style="edgeStyle=entityRelationEdgeStyle;startArrow=none;endArrow=none;segment=10;curved=1;strokeColor=#00FF00;" edge="1" target="92" parent="1" source="26">
                    <mxGeometry relative="1" as="geometry">
                        <mxPoint x="452" y="260" as="sourcePoint"/>
                    </mxGeometry>
                </mxCell>
                <mxCell id="94" value="&lt;h2&gt;同构业务模块 直接 和&amp;nbsp;&lt;/h2&gt;&lt;h2&gt;Server 接口交互&lt;/h2&gt;" style="whiteSpace=wrap;html=1;rounded=1;arcSize=50;align=center;verticalAlign=middle;strokeWidth=1;autosize=1;spacing=4;treeFolding=1;treeMoving=1;newEdgeStyle={&quot;edgeStyle&quot;:&quot;entityRelationEdgeStyle&quot;,&quot;startArrow&quot;:&quot;none&quot;,&quot;endArrow&quot;:&quot;none&quot;,&quot;segment&quot;:10,&quot;curved&quot;:1};" vertex="1" parent="1">
                    <mxGeometry x="533" y="80" width="220" height="90" as="geometry"/>
                </mxCell>
                <mxCell id="95" value="" style="edgeStyle=entityRelationEdgeStyle;startArrow=none;endArrow=none;segment=10;curved=1;strokeColor=#00FF00;" edge="1" target="94" parent="1">
                    <mxGeometry relative="1" as="geometry">
                        <mxPoint x="316" y="170" as="sourcePoint"/>
                    </mxGeometry>
                </mxCell>
                <mxCell id="96" value="其他" style="whiteSpace=wrap;html=1;" vertex="1" parent="1">
                    <mxGeometry x="80" y="830" width="120" height="60" as="geometry"/>
                </mxCell>
                <mxCell id="97" value="&lt;h2&gt;单个视图&amp;amp;微前端合集&lt;/h2&gt;" style="whiteSpace=wrap;html=1;rounded=1;arcSize=50;align=center;verticalAlign=middle;strokeWidth=1;autosize=1;spacing=4;treeFolding=1;treeMoving=1;newEdgeStyle={&quot;edgeStyle&quot;:&quot;entityRelationEdgeStyle&quot;,&quot;startArrow&quot;:&quot;none&quot;,&quot;endArrow&quot;:&quot;none&quot;,&quot;segment&quot;:10,&quot;curved&quot;:1};" vertex="1" parent="1">
                    <mxGeometry x="535" y="698" width="220" height="60" as="geometry"/>
                </mxCell>
                <mxCell id="98" value="" style="edgeStyle=entityRelationEdgeStyle;startArrow=none;endArrow=none;segment=10;curved=1;strokeColor=#00FF00;" edge="1" target="97" parent="1">
                    <mxGeometry relative="1" as="geometry">
                        <mxPoint x="490" y="770" as="sourcePoint"/>
                    </mxGeometry>
                </mxCell>
            </root>
        </mxGraphModel>
    </diagram>
</mxfile>